<svg width="24" height="24" viewBox="0 0 24 24" fill="none" xmlns="http://www.w3.org/2000/svg">
<path d="M2.01968 12.0705C2.01968 10.6605 2.55968 9.24052 3.62968 8.17052L8.15968 3.64052C9.25968 2.54052 10.7797 1.96052 12.3297 2.03052L17.3397 2.27052C19.7297 2.38052 21.6197 4.27052 21.7397 6.67052L21.9797 11.6705C22.0497 13.2305 21.4697 14.7405 20.3697 15.8405L15.8397 20.3705C13.6897 22.5205 10.1797 22.5205 8.02968 20.3705L3.63968 15.9805C2.55968 14.9005 2.01968 13.4905 2.01968 12.0705ZM9.22968 4.70052L4.69968 9.23052C3.12968 10.8005 3.12968 13.3505 4.69968 14.9205L9.08968 19.3105C10.6597 20.8805 13.2097 20.8805 14.7797 19.3105L19.2997 14.7705C20.0997 13.9705 20.5197 12.8805 20.4697 11.7305L20.2297 6.73052C20.1597 5.11052 18.8897 3.84052 17.2697 3.76052L12.2597 3.52052C11.1397 3.47052 10.0297 3.90052 9.22968 4.70052Z" fill="#292D32"/>
<path d="M11.2495 9.50049C11.2495 7.71049 12.7095 6.25049 14.4995 6.25049C16.2895 6.25049 17.7495 7.71049 17.7495 9.50049C17.7495 11.2905 16.2895 12.7505 14.4995 12.7505C12.7095 12.7505 11.2495 11.2905 11.2495 9.50049ZM16.2495 9.50049C16.2495 8.54049 15.4595 7.75049 14.4995 7.75049C13.5395 7.75049 12.7495 8.54049 12.7495 9.50049C12.7495 10.4605 13.5395 11.2505 14.4995 11.2505C15.4595 11.2505 16.2495 10.4605 16.2495 9.50049Z" fill="#292D32"/>
<path d="M6.24957 13.0005C6.24957 12.8105 6.31957 12.6205 6.46957 12.4705C6.75957 12.1805 7.23957 12.1805 7.52957 12.4705L11.5296 16.4705C11.8196 16.7605 11.8196 17.2405 11.5296 17.5305C11.2396 17.8205 10.7596 17.8205 10.4696 17.5305L6.46957 13.5305C6.31957 13.3805 6.24957 13.1905 6.24957 13.0005Z" fill="#292D32"/>
</svg>
