<svg width="20" height="20" viewBox="0 0 20 20" fill="none" xmlns="http://www.w3.org/2000/svg">
<path d="M10 18.9587C5.05835 18.9587 1.04169 14.942 1.04169 10.0003C1.04169 5.05866 5.05835 1.04199 10 1.04199C14.9417 1.04199 18.9584 5.05866 18.9584 10.0003C18.9584 14.942 14.9417 18.9587 10 18.9587ZM10 2.29199C5.75002 2.29199 2.29169 5.75033 2.29169 10.0003C2.29169 14.2503 5.75002 17.7087 10 17.7087C14.25 17.7087 17.7084 14.2503 17.7084 10.0003C17.7084 5.75033 14.25 2.29199 10 2.29199Z" fill="white"/>
<path d="M8.81664 12.9837C8.64997 12.9837 8.49164 12.917 8.37497 12.8003L6.01664 10.442C5.77497 10.2003 5.77497 9.80033 6.01664 9.55866C6.2583 9.31699 6.6583 9.31699 6.89997 9.55866L8.81664 11.4753L13.1 7.19199C13.3416 6.95033 13.7416 6.95033 13.9833 7.19199C14.225 7.43366 14.225 7.83366 13.9833 8.07533L9.2583 12.8003C9.14164 12.917 8.9833 12.9837 8.81664 12.9837Z" fill="white"/>
</svg>
